<svg xmlns="http://www.w3.org/2000/svg" width="41" height="30" viewBox="0 0 41 30"><title>Viewers</title><g fill="none" fill-rule="evenodd"><path fill="none" d="M2 15S9.4 2 20.5 2 39 15 39 15s-7.4 13-18.5 13S2 15 2 15z"/><path stroke="#FFF" stroke-linecap="square" stroke-width="3" d="M2 15S9.4 2 20.5 2 39 15 39 15s-7.4 13-18.5 13S2 15 2 15z"/><path fill="none" d="M24.424 11.06c2.168 2.176 2.168 5.704 0 7.88-2.167 2.175-5.68 2.175-7.848 0-2.168-2.176-2.168-5.704 0-7.88 2.167-2.175 5.68-2.175 7.848 0"/><path stroke="#FFF" stroke-linecap="square" stroke-width="3" d="M24.424 11.06c2.168 2.176 2.168 5.704 0 7.88-2.167 2.175-5.68 2.175-7.848 0-2.168-2.176-2.168-5.704 0-7.88 2.167-2.175 5.68-2.175 7.848 0"/></g></svg>