<svg xmlns="http://www.w3.org/2000/svg" xmlns:xlink="http://www.w3.org/1999/xlink" id="Layer_1" width="24.2" height="22.5" x="0" y="0" enable-background="new -393.2 188.5 24.2 22.5" version="1.1" viewBox="-393.2 188.5 24.2 22.5" xml:space="preserve"><path fill="#FFF" d="M-369.6,200.1l-18-9c-0.4-0.2-1,0-1.3,0.5c-0.3,0.5,0,1.1,0.4,1.3l16.3,8.1l-14.8,7.4V201c0-0.6-0.4-1-1-1	c-0.6,0-1,0.4-1,1v9c0,0.3,0.2,0.7,0.5,0.9c0.1,0,0.3,0.1,0.5,0.1c0.2,0,0.3,0,0.4-0.1l18-9c0.3-0.2,0.6-0.5,0.6-0.9	S-369.2,200.3-369.6,200.1z"/></svg>