<svg xmlns="http://www.w3.org/2000/svg" xmlns:xlink="http://www.w3.org/1999/xlink" id="Layer_1" width="40.5" height="40.5" x="0" y="0" enable-background="new -379 180.5 40.5 40.5" version="1.1" viewBox="-379 180.5 40.5 40.5" xml:space="preserve"><g><linearGradient id="SVGID_1_" x1="-372.125" x2="-349.253" y1="202.3" y2="202.3" gradientTransform="matrix(1 0 0 -1 0 403)" gradientUnits="userSpaceOnUse"><stop offset="0" style="stop-color:#fff"/><stop offset="1" style="stop-color:#fff;stop-opacity:0"/></linearGradient><path fill="url(#SVGID_1_)" d="M-358.8,214.1c-7.4,0-13.4-6-13.4-13.4c0-7.4,6-13.4,13.4-13.4c3.4,0,6.6,1.3,9.1,3.6 c0.4,0.4,0.4,1,0.1,1.4c-0.4,0.4-1,0.4-1.4,0.1c-2.1-2-4.9-3-7.7-3c-6.3,0-11.4,5.1-11.4,11.4s5.1,11.3,11.3,11.3 c2.9,0,5.7-1.1,7.8-3.1c0.4-0.4,1-0.4,1.4,0s0.4,1,0,1.4C-352.1,212.8-355.3,214.1-358.8,214.1z"/></g></svg>